# xmcd CD database file
#
# Track frame offsets:
#	150
#	10751
#	22828
#	33715
#	52904
#	65439
#	73241
#	82473
#	96468
#	107475
#	119776
#	129458
#	141313
#	151621
#	162817
#	176051
#	187755
#	196322
#
# Disc length: 2771 seconds
#
# Revision: 1
# Processed by: cddbd v1.5.2PL0 Copyright (c) Steve Scherf et al.
# Submitted via: CDex 1.51
#
DISCID=f80ad112
DTITLE=Joe Bushkin -  Seven Classic Albums - CD 3
DYEAR=1900
DGENRE=Jazz
TTITLE0=I Get A Kick Out Of You
TTITLE1=I've Got You Under My Skin
TTITLE2=Night And Day
TTITLE3=Begin The Beguine
TTITLE4=Get Out Of Town
TTITLE5=In The Still Of The Night
TTITLE6=So In Love
TTITLE7=Love For Sale
TTITLE8=Let's Do It
TTITLE9=Where Have You Been
TTITLE10=What Is This Thing Called Love
TTITLE11=Just One Of Those Things
TTITLE12=Love Me Or Leave Me
TTITLE13=You Go To My Head
TTITLE14=But Not For Me
TTITLE15=Fools Rush In
TTITLE16=There's A Small Hotel
TTITLE17=While We're Young
EXTD=
EXTT0=
EXTT1=
EXTT2=
EXTT3=
EXTT4=
EXTT5=
EXTT6=
EXTT7=
EXTT8=
EXTT9=
EXTT10=
EXTT11=
EXTT12=
EXTT13=
EXTT14=
EXTT15=
EXTT16=
EXTT17=
PLAYORDER=
